<?xml version="1.0"?>
<svg xmlns="http://www.w3.org/2000/svg" version="1.2" baseProfile="tiny" width="800" height="882" viewBox="0 0 800 882" stroke-linecap="round" stroke-linejoin="round">
<g id="ne_50m_admin_0_countries">
<path d="M 353.37 5.21 364.97 1 374.2 5.81 374.4 16.17 379.93 22.93 370.32 32.27 369.89 37.44 383.94 44.42 392.04 47.8 402.52 47.21 422.28 52.68 425.62 60.35 432.17 64.44 444.97 66.35 453.75 69.53 461.54 74.61 469.65 72.55 474.22 66.38 471.88 58.67 479.13 50.7 489.73 46.98 504.92 50.3 506.96 54.53 521.55 56.6 526.43 60.36 548.33 63.26 567.37 68.98 581.19 62.43 589.53 61.07 599.01 66.23 615.35 65.84 620.9 63.84 621.39 65.03 628.27 83.1 623 98.36 614.1 99.59 618.4 112.64 631.3 135.33 635.8 139.61 634.73 146.12 636.56 151.3 648.81 161.21 651.73 170.54 652.75 186.43 655.08 194.38 666.96 202.89 672.53 216.22 676.33 228.71 683.61 234.12 693.76 238.23 698.79 244.89 704.92 249.02 714.02 258.2 717.08 263.61 710.71 268.32 715.37 270.82 721.71 278.29 727.28 281.99 733.09 281.92 742.22 277.75 750.03 278.69 758.8 274.22 774.81 273.34 787.05 270.51 794.17 265.77 799 267.36 797.81 279.62 795.28 283.84 794.51 292.45 779.09 317.9 775.97 326.43 764.76 343.94 744.66 365.05 726.72 376.37 717.69 384.4 702.15 401.06 697.48 408.6 691.88 411.26 688.21 417.41 683.8 418.97 682.69 424.84 676.16 437.66 673.35 439.89 669.15 452.27 669.72 457 675.97 462.72 674.05 469.39 674.21 479.06 679.22 494.42 686.32 500.16 685.69 509.22 687.55 522.83 688.16 541.15 690.2 545.34 687.32 552.46 679.86 562.51 671.92 568.12 662.11 570.94 652.71 576.13 645.35 584.26 628.73 597.77 626.12 603.95 632.07 616.97 632.57 624.76 635.28 630.67 630.9 647.15 612.02 654.66 606.22 658.66 607.2 671.25 603.53 685.35 600.93 689.75 591.01 697.65 580.08 714.27 565.12 728.1 554.73 736.03 539.78 743.4 523.05 747.68 510.09 745.76 496.09 746.63 491.33 749.8 478.18 750.75 468.84 753.78 460.21 747.04 450.49 735.07 454.38 731.84 453.97 722.34 448.4 714.79 440.8 697.92 435.55 689.71 427.95 682.9 424.01 676.86 420.1 665.7 418.74 652.28 415.23 643.6 415.49 627.95 413.36 622.59 404.26 609.3 401.31 601.66 393.9 588.52 386.77 578.86 386.43 571.01 386.51 556.21 388.78 554.14 394.86 531.21 399.38 524.29 403.91 521.63 407.76 514.24 408.4 506.32 399.54 485.37 403.51 478.29 392.27 454.51 400.27 452.13 393.41 453.4 391.35 451.03 389.31 443.15 380.03 431.79 371.86 422.36 365.72 417.19 360.56 409.95 355.92 398.29 360.89 394.56 363.96 380.12 366.15 366.83 366.94 356.34 362.23 349.94 357.79 348.17 353.15 341.24 350.41 343.31 338.52 343.76 327.26 346.09 322.16 342.37 314.57 327.97 306.9 323.95 292.07 324.39 280.76 325.98 276.21 327.31 273.73 330.23 266.53 330.78 255.49 336.32 242.91 341.17 231.3 337.76 231.58 337.35 232.29 337.32 221.66 336.28 205.71 337.75 185.03 345.46 168.46 338.12 156.51 327.43 143.66 318.78 133.44 313.77 129.32 308.86 125.02 296.41 120.76 288.03 113.17 283.89 109.53 276.75 106.74 276.66 101.95 268.48 95.3 266.46 89.32 261.89 88.78 254.48 90.88 249.02 84.55 238.02 84.77 235.08 91.16 225.52 91.15 220.83 95.92 207.69 95.86 197.5 91.38 188.72 94.55 179.68 92.26 175.25 85.8 173.64 86.27 167.23 87.03 162.22 91.38 157.7 94.55 149.71 101.07 139.54 106.78 134.56 113.31 116.76 122.06 111.74 128.61 99.43 144.46 94.54 154.32 87.41 162.87 76.5 160.7 70.15 161.4 62.77 167.27 50.78 177.14 42.41 191.76 36.2 197.48 27.78 201.95 17.23 207.46 15.73 210.51 20.55 218.6 23.75 225.25 22.51 240.64 24.35 243.84 24.45 254.23 18.46 264.32 16.03 276.94 9.57 290.89 8.72 303.27 5.64 313.5 5.64 318.07 7.93 331.54 3.66 336.15 5.4 353.37 5.21 Z M 781.08 520.71 785.24 527.39 788.35 544.72 790.94 551.55 784.13 560.63 783.47 566.47 780.02 572.02 780.44 577.79 771.35 604.51 764.06 625.48 760.4 640.19 756.42 649.71 751.74 653.5 734.89 657.61 723.62 651.89 719.98 645.23 720.35 636.58 716.96 629.87 715.59 621.13 718.05 613.89 721.16 612.04 725.75 603.69 727.93 593.76 723.67 581.86 723.03 572.49 727.65 565.3 728.22 560.23 747.59 554.97 763.05 542.77 764.97 536.67 773.33 529.43 774.41 520.98 781.08 520.71 Z" fill-rule="evenodd" fill="white"/>
</g>
</svg>